<?xml version="1.0" encoding="UTF-8" standalone="no"?>
<!DOCTYPE svg PUBLIC "-//W3C//DTD SVG 1.1//EN"
 "http://www.w3.org/Graphics/SVG/1.1/DTD/svg11.dtd">
<!-- Generated by graphviz version 2.40.1 (20161225.0304)
 -->
<!-- Title: schema Pages: 1 -->
<svg width="1928pt" height="260pt"
 viewBox="0.00 0.00 1928.49 260.00" xmlns="http://www.w3.org/2000/svg" xmlns:xlink="http://www.w3.org/1999/xlink">
<g id="graph0" class="graph" transform="scale(1 1) rotate(0) translate(4 256)">
<title>schema</title>
<polygon fill="#ffffff" stroke="transparent" points="-4,4 -4,-256 1924.4867,-256 1924.4867,4 -4,4"/>
<!-- Report -->
<g id="node1" class="node">
<title>Report</title>
<ellipse fill="none" stroke="#000000" cx="834.2428" cy="-234" rx="34.394" ry="18"/>
<text text-anchor="middle" x="834.2428" y="-230.3" font-family="Times,serif" font-size="14.00" fill="#000000">Report</text>
</g>
<!-- Cargo Ship Hatches -->
<g id="node2" class="node">
<title>Cargo Ship Hatches</title>
<ellipse fill="none" stroke="#000000" cx="81.2428" cy="-162" rx="81.4863" ry="18"/>
<text text-anchor="middle" x="81.2428" y="-158.3" font-family="Times,serif" font-size="14.00" fill="#000000">Cargo Ship Hatches</text>
</g>
<!-- Report&#45;&gt;Cargo Ship Hatches -->
<g id="edge1" class="edge">
<title>Report&#45;&gt;Cargo Ship Hatches</title>
<path fill="none" stroke="#000000" d="M799.5762,-232.5975C700.9121,-228.3006 410.268,-213.5211 171.2428,-180 164.1911,-179.0111 156.8589,-177.8189 149.5589,-176.5246"/>
<polygon fill="#000000" stroke="#000000" points="150.1216,-173.0695 139.6539,-174.7058 148.8573,-179.9544 150.1216,-173.0695"/>
</g>
<!-- Cargo Ship Cargo -->
<g id="node3" class="node">
<title>Cargo Ship Cargo</title>
<ellipse fill="none" stroke="#000000" cx="834.2428" cy="-162" rx="74.9875" ry="18"/>
<text text-anchor="middle" x="834.2428" y="-158.3" font-family="Times,serif" font-size="14.00" fill="#000000">Cargo Ship Cargo</text>
</g>
<!-- Report&#45;&gt;Cargo Ship Cargo -->
<g id="edge2" class="edge">
<title>Report&#45;&gt;Cargo Ship Cargo</title>
<path fill="none" stroke="#000000" d="M834.2428,-215.8314C834.2428,-208.131 834.2428,-198.9743 834.2428,-190.4166"/>
<polygon fill="#000000" stroke="#000000" points="837.7429,-190.4132 834.2428,-180.4133 830.7429,-190.4133 837.7429,-190.4132"/>
</g>
<!-- Rocket Hatches Lvl 1 -->
<g id="node4" class="node">
<title>Rocket Hatches Lvl 1</title>
<ellipse fill="none" stroke="#000000" cx="268.2428" cy="-162" rx="87.9851" ry="18"/>
<text text-anchor="middle" x="268.2428" y="-158.3" font-family="Times,serif" font-size="14.00" fill="#000000">Rocket Hatches Lvl 1</text>
</g>
<!-- Report&#45;&gt;Rocket Hatches Lvl 1 -->
<g id="edge3" class="edge">
<title>Report&#45;&gt;Rocket Hatches Lvl 1</title>
<path fill="none" stroke="#000000" d="M800.2197,-230.9265C722.6585,-223.7374 526.8725,-204.5575 364.2428,-180 356.8398,-178.8821 349.1347,-177.6144 341.4521,-176.2818"/>
<polygon fill="#000000" stroke="#000000" points="341.8498,-172.7979 331.3926,-174.4998 340.6287,-179.6905 341.8498,-172.7979"/>
</g>
<!-- Rocket Cargo Lvl 1 -->
<g id="node5" class="node">
<title>Rocket Cargo Lvl 1</title>
<ellipse fill="none" stroke="#000000" cx="1008.2428" cy="-162" rx="81.4863" ry="18"/>
<text text-anchor="middle" x="1008.2428" y="-158.3" font-family="Times,serif" font-size="14.00" fill="#000000">Rocket Cargo Lvl 1</text>
</g>
<!-- Report&#45;&gt;Rocket Cargo Lvl 1 -->
<g id="edge4" class="edge">
<title>Report&#45;&gt;Rocket Cargo Lvl 1</title>
<path fill="none" stroke="#000000" d="M861.4303,-222.75C887.7629,-211.8538 928.2646,-195.0944 960.0629,-181.9365"/>
<polygon fill="#000000" stroke="#000000" points="961.7246,-185.0368 969.6266,-177.9791 959.0481,-178.5686 961.7246,-185.0368"/>
</g>
<!-- Rocket Hatches Lvl 2 -->
<g id="node6" class="node">
<title>Rocket Hatches Lvl 2</title>
<ellipse fill="none" stroke="#000000" cx="461.2428" cy="-162" rx="87.9851" ry="18"/>
<text text-anchor="middle" x="461.2428" y="-158.3" font-family="Times,serif" font-size="14.00" fill="#000000">Rocket Hatches Lvl 2</text>
</g>
<!-- Report&#45;&gt;Rocket Hatches Lvl 2 -->
<g id="edge5" class="edge">
<title>Report&#45;&gt;Rocket Hatches Lvl 2</title>
<path fill="none" stroke="#000000" d="M801.794,-227.7364C742.8131,-216.3514 616.6451,-191.9972 535.5392,-176.3414"/>
<polygon fill="#000000" stroke="#000000" points="535.8708,-172.8409 525.3886,-174.382 534.544,-179.714 535.8708,-172.8409"/>
</g>
<!-- Rocket Cargo Lvl 2 -->
<g id="node7" class="node">
<title>Rocket Cargo Lvl 2</title>
<ellipse fill="none" stroke="#000000" cx="1188.2428" cy="-162" rx="81.4863" ry="18"/>
<text text-anchor="middle" x="1188.2428" y="-158.3" font-family="Times,serif" font-size="14.00" fill="#000000">Rocket Cargo Lvl 2</text>
</g>
<!-- Report&#45;&gt;Rocket Cargo Lvl 2 -->
<g id="edge6" class="edge">
<title>Report&#45;&gt;Rocket Cargo Lvl 2</title>
<path fill="none" stroke="#000000" d="M866.5964,-227.4196C923.3597,-215.8745 1042.0886,-191.7263 1118.3347,-176.2186"/>
<polygon fill="#000000" stroke="#000000" points="1119.2365,-179.6069 1128.3382,-174.184 1117.8412,-172.7474 1119.2365,-179.6069"/>
</g>
<!-- Rocket Hatches Lvl 3 -->
<g id="node8" class="node">
<title>Rocket Hatches Lvl 3</title>
<ellipse fill="none" stroke="#000000" cx="654.2428" cy="-162" rx="87.9851" ry="18"/>
<text text-anchor="middle" x="654.2428" y="-158.3" font-family="Times,serif" font-size="14.00" fill="#000000">Rocket Hatches Lvl 3</text>
</g>
<!-- Report&#45;&gt;Rocket Hatches Lvl 3 -->
<g id="edge7" class="edge">
<title>Report&#45;&gt;Rocket Hatches Lvl 3</title>
<path fill="none" stroke="#000000" d="M806.5123,-222.9078C779.2264,-211.9935 736.963,-195.0881 703.8783,-181.8542"/>
<polygon fill="#000000" stroke="#000000" points="704.957,-178.5161 694.3723,-178.0518 702.3572,-185.0154 704.957,-178.5161"/>
</g>
<!-- Rocket Cargo Lvl 3 -->
<g id="node9" class="node">
<title>Rocket Cargo Lvl 3</title>
<ellipse fill="none" stroke="#000000" cx="1368.2428" cy="-162" rx="81.4863" ry="18"/>
<text text-anchor="middle" x="1368.2428" y="-158.3" font-family="Times,serif" font-size="14.00" fill="#000000">Rocket Cargo Lvl 3</text>
</g>
<!-- Report&#45;&gt;Rocket Cargo Lvl 3 -->
<g id="edge8" class="edge">
<title>Report&#45;&gt;Rocket Cargo Lvl 3</title>
<path fill="none" stroke="#000000" d="M868.3456,-230.7495C942.9305,-223.444 1126.0543,-204.437 1278.2428,-180 1285.0079,-178.9137 1292.0396,-177.6845 1299.0575,-176.3911"/>
<polygon fill="#000000" stroke="#000000" points="1300.1191,-179.7526 1309.2968,-174.4592 1298.8213,-172.8739 1300.1191,-179.7526"/>
</g>
<!-- Assisted Climb Points -->
<g id="node17" class="node">
<title>Assisted Climb Points</title>
<ellipse fill="none" stroke="#000000" cx="1557.2428" cy="-162" rx="89.8845" ry="18"/>
<text text-anchor="middle" x="1557.2428" y="-158.3" font-family="Times,serif" font-size="14.00" fill="#000000">Assisted Climb Points</text>
</g>
<!-- Report&#45;&gt;Assisted Climb Points -->
<g id="edge18" class="edge">
<title>Report&#45;&gt;Assisted Climb Points</title>
<path fill="none" stroke="#000000" d="M868.5251,-232.1629C962.8929,-226.8625 1234.3368,-209.9765 1458.2428,-180 1466.2441,-178.9288 1474.5826,-177.6578 1482.8759,-176.294"/>
<polygon fill="#000000" stroke="#000000" points="1483.6672,-179.71 1492.9437,-174.5917 1482.5001,-172.808 1483.6672,-179.71"/>
</g>
<!-- Teleop Hatches -->
<g id="node18" class="node">
<title>Teleop Hatches</title>
<ellipse fill="none" stroke="#000000" cx="461.2428" cy="-90" rx="65.7887" ry="18"/>
<text text-anchor="middle" x="461.2428" y="-86.3" font-family="Times,serif" font-size="14.00" fill="#000000">Teleop Hatches</text>
</g>
<!-- Cargo Ship Hatches&#45;&gt;Teleop Hatches -->
<g id="edge22" class="edge">
<title>Cargo Ship Hatches&#45;&gt;Teleop Hatches</title>
<path fill="none" stroke="#000000" d="M141.7358,-149.7867C151.5935,-147.8295 161.6991,-145.8428 171.2428,-144 248.6042,-129.0619 337.7206,-112.5754 396.5225,-101.7969"/>
<polygon fill="#000000" stroke="#000000" points="397.2094,-105.2293 406.4152,-99.9849 395.9483,-98.3439 397.2094,-105.2293"/>
</g>
<!-- Teleop Cargo -->
<g id="node19" class="node">
<title>Teleop Cargo</title>
<ellipse fill="none" stroke="#000000" cx="1008.2428" cy="-90" rx="59.2899" ry="18"/>
<text text-anchor="middle" x="1008.2428" y="-86.3" font-family="Times,serif" font-size="14.00" fill="#000000">Teleop Cargo</text>
</g>
<!-- Cargo Ship Cargo&#45;&gt;Teleop Cargo -->
<g id="edge26" class="edge">
<title>Cargo Ship Cargo&#45;&gt;Teleop Cargo</title>
<path fill="none" stroke="#000000" d="M871.9982,-146.3771C898.9381,-135.2295 935.2711,-120.1952 963.6419,-108.4555"/>
<polygon fill="#000000" stroke="#000000" points="965.0311,-111.6686 972.933,-104.6109 962.3546,-105.2005 965.0311,-111.6686"/>
</g>
<!-- Rocket Hatches Lvl 1&#45;&gt;Teleop Hatches -->
<g id="edge19" class="edge">
<title>Rocket Hatches Lvl 1&#45;&gt;Teleop Hatches</title>
<path fill="none" stroke="#000000" d="M310.5975,-146.1993C340.7653,-134.945 381.3716,-119.7965 412.8243,-108.0629"/>
<polygon fill="#000000" stroke="#000000" points="414.1239,-111.3137 422.2698,-104.5391 411.6772,-104.7552 414.1239,-111.3137"/>
</g>
<!-- Rocket Cargo Lvl 1&#45;&gt;Teleop Cargo -->
<g id="edge23" class="edge">
<title>Rocket Cargo Lvl 1&#45;&gt;Teleop Cargo</title>
<path fill="none" stroke="#000000" d="M1008.2428,-143.8314C1008.2428,-136.131 1008.2428,-126.9743 1008.2428,-118.4166"/>
<polygon fill="#000000" stroke="#000000" points="1011.7429,-118.4132 1008.2428,-108.4133 1004.7429,-118.4133 1011.7429,-118.4132"/>
</g>
<!-- Rocket Hatches Lvl 2&#45;&gt;Teleop Hatches -->
<g id="edge20" class="edge">
<title>Rocket Hatches Lvl 2&#45;&gt;Teleop Hatches</title>
<path fill="none" stroke="#000000" d="M461.2428,-143.8314C461.2428,-136.131 461.2428,-126.9743 461.2428,-118.4166"/>
<polygon fill="#000000" stroke="#000000" points="464.7429,-118.4132 461.2428,-108.4133 457.7429,-118.4133 464.7429,-118.4132"/>
</g>
<!-- Rocket Cargo Lvl 2&#45;&gt;Teleop Cargo -->
<g id="edge24" class="edge">
<title>Rocket Cargo Lvl 2&#45;&gt;Teleop Cargo</title>
<path fill="none" stroke="#000000" d="M1148.741,-146.1993C1120.7547,-135.0048 1083.1364,-119.9574 1053.8685,-108.2503"/>
<polygon fill="#000000" stroke="#000000" points="1054.8737,-104.8828 1044.289,-104.4185 1052.2739,-111.3821 1054.8737,-104.8828"/>
</g>
<!-- Rocket Hatches Lvl 3&#45;&gt;Teleop Hatches -->
<g id="edge21" class="edge">
<title>Rocket Hatches Lvl 3&#45;&gt;Teleop Hatches</title>
<path fill="none" stroke="#000000" d="M611.8881,-146.1993C581.7202,-134.945 541.114,-119.7965 509.6613,-108.0629"/>
<polygon fill="#000000" stroke="#000000" points="510.8084,-104.7552 500.2157,-104.5391 508.3616,-111.3137 510.8084,-104.7552"/>
</g>
<!-- Rocket Cargo Lvl 3&#45;&gt;Teleop Cargo -->
<g id="edge25" class="edge">
<title>Rocket Cargo Lvl 3&#45;&gt;Teleop Cargo</title>
<path fill="none" stroke="#000000" d="M1307.5808,-149.8676C1240.7752,-136.5065 1134.0539,-115.1622 1067.7234,-101.8961"/>
<polygon fill="#000000" stroke="#000000" points="1068.3306,-98.4483 1057.8384,-99.9191 1066.9578,-105.3124 1068.3306,-98.4483"/>
</g>
<!-- TBA -->
<g id="node10" class="node">
<title>TBA</title>
<ellipse fill="none" stroke="#000000" cx="1708.2428" cy="-234" rx="28.6953" ry="18"/>
<text text-anchor="middle" x="1708.2428" y="-230.3" font-family="Times,serif" font-size="14.00" fill="#000000">TBA</text>
</g>
<!-- endgame -->
<g id="node11" class="node">
<title>endgame</title>
<ellipse fill="none" stroke="#000000" cx="1708.2428" cy="-162" rx="42.7926" ry="18"/>
<text text-anchor="middle" x="1708.2428" y="-158.3" font-family="Times,serif" font-size="14.00" fill="#000000">endgame</text>
</g>
<!-- TBA&#45;&gt;endgame -->
<g id="edge9" class="edge">
<title>TBA&#45;&gt;endgame</title>
<path fill="none" stroke="#000000" d="M1708.2428,-215.8314C1708.2428,-208.131 1708.2428,-198.9743 1708.2428,-190.4166"/>
<polygon fill="#000000" stroke="#000000" points="1711.7429,-190.4132 1708.2428,-180.4133 1704.7429,-190.4133 1711.7429,-190.4132"/>
</g>
<!-- Climbed Lvl 1 -->
<g id="node12" class="node">
<title>Climbed Lvl 1</title>
<ellipse fill="none" stroke="#000000" cx="1564.2428" cy="-90" rx="63.0888" ry="18"/>
<text text-anchor="middle" x="1564.2428" y="-86.3" font-family="Times,serif" font-size="14.00" fill="#000000">Climbed Lvl 1</text>
</g>
<!-- endgame&#45;&gt;Climbed Lvl 1 -->
<g id="edge10" class="edge">
<title>endgame&#45;&gt;Climbed Lvl 1</title>
<path fill="none" stroke="#000000" d="M1680.4781,-148.1177C1658.9546,-137.3559 1628.8204,-122.2888 1604.628,-110.1926"/>
<polygon fill="#000000" stroke="#000000" points="1606.1869,-107.059 1595.6774,-105.7173 1603.0564,-113.32 1606.1869,-107.059"/>
</g>
<!-- Climbed Lvl 2 -->
<g id="node13" class="node">
<title>Climbed Lvl 2</title>
<ellipse fill="none" stroke="#000000" cx="1852.2428" cy="-90" rx="63.0888" ry="18"/>
<text text-anchor="middle" x="1852.2428" y="-86.3" font-family="Times,serif" font-size="14.00" fill="#000000">Climbed Lvl 2</text>
</g>
<!-- endgame&#45;&gt;Climbed Lvl 2 -->
<g id="edge11" class="edge">
<title>endgame&#45;&gt;Climbed Lvl 2</title>
<path fill="none" stroke="#000000" d="M1736.0074,-148.1177C1757.531,-137.3559 1787.6652,-122.2888 1811.8575,-110.1926"/>
<polygon fill="#000000" stroke="#000000" points="1813.4292,-113.32 1820.8082,-105.7173 1810.2987,-107.059 1813.4292,-113.32"/>
</g>
<!-- Climbed Lvl 3 -->
<g id="node14" class="node">
<title>Climbed Lvl 3</title>
<ellipse fill="none" stroke="#000000" cx="1708.2428" cy="-90" rx="63.0888" ry="18"/>
<text text-anchor="middle" x="1708.2428" y="-86.3" font-family="Times,serif" font-size="14.00" fill="#000000">Climbed Lvl 3</text>
</g>
<!-- endgame&#45;&gt;Climbed Lvl 3 -->
<g id="edge12" class="edge">
<title>endgame&#45;&gt;Climbed Lvl 3</title>
<path fill="none" stroke="#000000" d="M1708.2428,-143.8314C1708.2428,-136.131 1708.2428,-126.9743 1708.2428,-118.4166"/>
<polygon fill="#000000" stroke="#000000" points="1711.7429,-118.4132 1708.2428,-108.4133 1704.7429,-118.4133 1711.7429,-118.4132"/>
</g>
<!-- Climbed Lvl 1+ -->
<g id="node15" class="node">
<title>Climbed Lvl 1+</title>
<ellipse fill="none" stroke="#000000" cx="1698.2428" cy="-18" rx="68.4888" ry="18"/>
<text text-anchor="middle" x="1698.2428" y="-14.3" font-family="Times,serif" font-size="14.00" fill="#000000">Climbed Lvl 1+</text>
</g>
<!-- Climbed Lvl 1&#45;&gt;Climbed Lvl 1+ -->
<g id="edge13" class="edge">
<title>Climbed Lvl 1&#45;&gt;Climbed Lvl 1+</title>
<path fill="none" stroke="#000000" d="M1593.9817,-74.0209C1613.191,-63.6995 1638.3919,-50.1587 1659.2054,-38.9753"/>
<polygon fill="#000000" stroke="#000000" points="1660.9713,-41.9998 1668.1236,-34.1834 1657.6581,-35.8335 1660.9713,-41.9998"/>
</g>
<!-- Climbed Lvl 2&#45;&gt;Climbed Lvl 1+ -->
<g id="edge14" class="edge">
<title>Climbed Lvl 2&#45;&gt;Climbed Lvl 1+</title>
<path fill="none" stroke="#000000" d="M1819.2059,-74.5542C1796.4009,-63.8921 1765.8587,-49.6126 1741.1703,-38.07"/>
<polygon fill="#000000" stroke="#000000" points="1742.5643,-34.8582 1732.0231,-33.7934 1739.5996,-41.1993 1742.5643,-34.8582"/>
</g>
<!-- Climbed Lvl 2+ -->
<g id="node16" class="node">
<title>Climbed Lvl 2+</title>
<ellipse fill="none" stroke="#000000" cx="1852.2428" cy="-18" rx="68.4888" ry="18"/>
<text text-anchor="middle" x="1852.2428" y="-14.3" font-family="Times,serif" font-size="14.00" fill="#000000">Climbed Lvl 2+</text>
</g>
<!-- Climbed Lvl 2&#45;&gt;Climbed Lvl 2+ -->
<g id="edge16" class="edge">
<title>Climbed Lvl 2&#45;&gt;Climbed Lvl 2+</title>
<path fill="none" stroke="#000000" d="M1852.2428,-71.8314C1852.2428,-64.131 1852.2428,-54.9743 1852.2428,-46.4166"/>
<polygon fill="#000000" stroke="#000000" points="1855.7429,-46.4132 1852.2428,-36.4133 1848.7429,-46.4133 1855.7429,-46.4132"/>
</g>
<!-- Climbed Lvl 3&#45;&gt;Climbed Lvl 1+ -->
<g id="edge15" class="edge">
<title>Climbed Lvl 3&#45;&gt;Climbed Lvl 1+</title>
<path fill="none" stroke="#000000" d="M1705.7194,-71.8314C1704.6499,-64.131 1703.3781,-54.9743 1702.1895,-46.4166"/>
<polygon fill="#000000" stroke="#000000" points="1705.6427,-45.8367 1700.8002,-36.4133 1698.7092,-46.7997 1705.6427,-45.8367"/>
</g>
<!-- Climbed Lvl 3&#45;&gt;Climbed Lvl 2+ -->
<g id="edge17" class="edge">
<title>Climbed Lvl 3&#45;&gt;Climbed Lvl 2+</title>
<path fill="none" stroke="#000000" d="M1739.8442,-74.1993C1760.8006,-63.7211 1788.508,-49.8674 1811.1691,-38.5368"/>
<polygon fill="#000000" stroke="#000000" points="1812.8385,-41.6154 1820.2175,-34.0127 1809.7079,-35.3544 1812.8385,-41.6154"/>
</g>
<!-- Teleop Gamepieces -->
<g id="node20" class="node">
<title>Teleop Gamepieces</title>
<ellipse fill="none" stroke="#000000" cx="735.2428" cy="-18" rx="81.4863" ry="18"/>
<text text-anchor="middle" x="735.2428" y="-14.3" font-family="Times,serif" font-size="14.00" fill="#000000">Teleop Gamepieces</text>
</g>
<!-- Teleop Hatches&#45;&gt;Teleop Gamepieces -->
<g id="edge27" class="edge">
<title>Teleop Hatches&#45;&gt;Teleop Gamepieces</title>
<path fill="none" stroke="#000000" d="M508.6571,-77.5408C554.177,-65.5793 623.1936,-47.4436 673.0935,-34.3312"/>
<polygon fill="#000000" stroke="#000000" points="674.0238,-37.7056 682.806,-31.779 672.2448,-30.9355 674.0238,-37.7056"/>
</g>
<!-- Teleop Cargo&#45;&gt;Teleop Gamepieces -->
<g id="edge28" class="edge">
<title>Teleop Cargo&#45;&gt;Teleop Gamepieces</title>
<path fill="none" stroke="#000000" d="M963.4681,-78.1913C918.2294,-66.2602 847.9732,-47.7311 797.3597,-34.3825"/>
<polygon fill="#000000" stroke="#000000" points="798.0741,-30.9513 787.5122,-31.7853 796.289,-37.7198 798.0741,-30.9513"/>
</g>
</g>
</svg>
